<svg width="240" height="120" viewBox="0 0 240 120" xmlns="http://www.w3.org/2000/svg">
	<defs>
		<!-- Arrowhead marker -->
		<marker id="arrowhead" markerWidth="6" markerHeight="6" refX="5" refY="3" orient="auto" markerUnits="strokeWidth">
			<path d="M0,0 L6,3 L0,6 Z" fill="#424242"/>
		</marker>
	</defs>

	<!-- File 1 -->
	<g>
		<path d="M20 20 a6 6 0 0 1 6 -6 h28 l12 12 v54 a6 6 0 0 1 -6 6 h-40 a6 6 0 0 1 -6 -6 z" fill="#E0E0E0"/>
		<path d="M54 14 v12 h12 z" fill="#BDBDBD"/>
		<text x="40" y="65" text-anchor="middle" font-size="20" font-family="sans-serif" fill="#424242">1</text>
	</g>

	<!-- Curved Arrow -->
	<path d="M80 50 C110 10, 150 10, 170 50" fill="none" stroke="#424242" stroke-width="3" marker-end="url(#arrowhead)" />

	<!-- File 2 -->
	<g>
		<path d="M180 20 a6 6 0 0 1 6 -6 h28 l12 12 v54 a6 6 0 0 1 -6 6 h-40 a6 6 0 0 1 -6 -6 z" fill="#E0E0E0"/>
		<path d="M214 14 v12 h12 z" fill="#BDBDBD"/>
		<text x="200" y="65" text-anchor="middle" font-size="20" font-family="sans-serif" fill="#424242">2</text>
	</g>
</svg>